<?xml version="1.0" encoding="UTF-8"?><svg xmlns="http://www.w3.org/2000/svg" xmlns:xlink="http://www.w3.org/1999/xlink" fill-opacity="1" color-rendering="auto" color-interpolation="auto" text-rendering="auto" stroke="black" stroke-linecap="square" width="168" stroke-miterlimit="10" shape-rendering="auto" stroke-opacity="1" fill="black" stroke-dasharray="none" font-weight="normal" stroke-width="1" height="285" font-family="'Dialog'" font-style="normal" stroke-linejoin="miter" font-size="12px" stroke-dashoffset="0" image-rendering="auto">
  <!--Generated by ySVG 2.5-->
  <defs id="genericDefs"/>
  <g>
    <defs id="defs1">
      <clipPath clipPathUnits="userSpaceOnUse" id="clipPath1">
        <path d="M0 0 L168 0 L168 285 L0 285 L0 0 Z"/>
      </clipPath>
      <clipPath clipPathUnits="userSpaceOnUse" id="clipPath2">
        <path d="M443 152 L611 152 L611 437 L443 437 L443 152 Z"/>
      </clipPath>
    </defs>
    <g fill="white" text-rendering="geometricPrecision" shape-rendering="geometricPrecision" transform="translate(-443,-152)" stroke="white">
      <rect x="443" width="168" height="285" y="152" clip-path="url(#clipPath2)" stroke="none"/>
    </g>
    <g fill="rgb(153,204,255)" text-rendering="geometricPrecision" shape-rendering="geometricPrecision" transform="matrix(1,0,0,1,-443,-152)" stroke="rgb(153,204,255)">
      <circle r="15" clip-path="url(#clipPath2)" cx="525.791" cy="230.0762" stroke="none"/>
    </g>
    <g text-rendering="geometricPrecision" stroke-miterlimit="1.45" shape-rendering="geometricPrecision" font-family="sans-serif" transform="matrix(1,0,0,1,-443,-152)" stroke-linecap="butt">
      <text x="521.7891" xml:space="preserve" y="234.79" clip-path="url(#clipPath2)" stroke="none">A</text>
      <circle fill="none" r="15" clip-path="url(#clipPath2)" cx="525.791" cy="230.0762"/>
    </g>
    <g fill="rgb(255,255,102)" text-rendering="geometricPrecision" shape-rendering="geometricPrecision" transform="matrix(1,0,0,1,-443,-152)" stroke="rgb(255,255,102)">
      <circle r="15" clip-path="url(#clipPath2)" cx="473.4442" cy="361.3278" stroke="none"/>
    </g>
    <g text-rendering="geometricPrecision" stroke-miterlimit="1.45" shape-rendering="geometricPrecision" font-family="sans-serif" transform="matrix(1,0,0,1,-443,-152)" stroke-linecap="butt">
      <text x="469.4422" xml:space="preserve" y="366.0417" clip-path="url(#clipPath2)" stroke="none">B</text>
      <circle fill="none" r="15" clip-path="url(#clipPath2)" cx="473.4442" cy="361.3278"/>
      <circle stroke-linecap="square" clip-path="url(#clipPath2)" r="6.6114" cx="525.791" cy="176.053" stroke="none" stroke-miterlimit="10"/>
      <circle fill="none" r="6.6114" clip-path="url(#clipPath2)" cx="525.791" cy="176.053"/>
      <circle fill="none" r="9.0231" clip-path="url(#clipPath2)" cx="525.791" cy="176.053"/>
    </g>
    <g fill="rgb(153,204,255)" text-rendering="geometricPrecision" shape-rendering="geometricPrecision" transform="matrix(1,0,0,1,-443,-152)" stroke="rgb(153,204,255)">
      <circle r="15" clip-path="url(#clipPath2)" cx="525.791" cy="361.3278" stroke="none"/>
    </g>
    <g text-rendering="geometricPrecision" stroke-miterlimit="1.45" shape-rendering="geometricPrecision" font-family="sans-serif" transform="matrix(1,0,0,1,-443,-152)" stroke-linecap="butt">
      <text x="521.458" xml:space="preserve" y="366.0417" clip-path="url(#clipPath2)" stroke="none">C</text>
      <circle fill="none" r="15" clip-path="url(#clipPath2)" cx="525.791" cy="361.3278"/>
    </g>
    <g fill="rgb(255,255,102)" text-rendering="geometricPrecision" shape-rendering="geometricPrecision" transform="matrix(1,0,0,1,-443,-152)" stroke="rgb(255,255,102)">
      <circle r="15" clip-path="url(#clipPath2)" cx="580.7565" cy="361.3278" stroke="none"/>
    </g>
    <g text-rendering="geometricPrecision" stroke-miterlimit="1.45" shape-rendering="geometricPrecision" font-family="sans-serif" transform="matrix(1,0,0,1,-443,-152)" stroke-linecap="butt">
      <text x="576.4235" xml:space="preserve" y="366.0417" clip-path="url(#clipPath2)" stroke="none">D</text>
      <circle fill="none" r="15" clip-path="url(#clipPath2)" cx="580.7565" cy="361.3278"/>
      <circle stroke-linecap="square" clip-path="url(#clipPath2)" r="6.6114" cx="525.0556" cy="415.2234" stroke="none" stroke-miterlimit="10"/>
      <circle fill="none" r="6.6114" clip-path="url(#clipPath2)" cx="525.0556" cy="415.2234"/>
      <path fill="none" d="M518.0001 285.0038 L525.7911 277.2128 L533.5821 285.0038 L525.7911 292.7948 Z" clip-path="url(#clipPath2)" fill-rule="evenodd"/>
      <path fill="none" d="M545.791 319.6661 L553.582 311.8751 L561.3731 319.6661 L553.582 327.4572 Z" clip-path="url(#clipPath2)" fill-rule="evenodd"/>
      <path fill="none" d="M525.791 185.0762 L525.791 207.0762" clip-path="url(#clipPath2)"/>
      <path d="M525.791 215.0762 L530.791 203.0762 L525.791 206.0762 L520.791 203.0762 Z" clip-path="url(#clipPath2)" stroke="none"/>
      <path fill="none" d="M483.8187 372.1615 L514.9498 404.6703" clip-path="url(#clipPath2)"/>
      <path d="M520.4828 410.4483 L515.7944 398.3232 L514.2581 403.9481 L508.572 405.2395 Z" clip-path="url(#clipPath2)" stroke="none"/>
      <path fill="none" d="M525.5864 376.3264 L525.2549 400.6133" clip-path="url(#clipPath2)"/>
      <path d="M525.1458 408.6126 L530.3091 396.682 L525.2686 399.6134 L520.31 396.5455 Z" clip-path="url(#clipPath2)" stroke="none"/>
      <path fill="none" d="M569.9766 371.7583 L535.5562 405.0631" clip-path="url(#clipPath2)"/>
      <path d="M529.8069 410.626 L541.9076 405.8749 L536.2748 404.3678 L534.9539 398.6884 Z" clip-path="url(#clipPath2)" stroke="none"/>
      <path fill="none" d="M525.791 245.0762 L525.791 269.2443" clip-path="url(#clipPath2)"/>
      <path d="M525.791 277.2443 L530.791 265.2443 L525.791 268.2443 L520.791 265.2443 Z" clip-path="url(#clipPath2)" stroke="none"/>
      <path fill="none" d="M522.5961 289.6621 L486.4531 342.3602" clip-path="url(#clipPath2)"/>
      <path d="M481.9282 348.9576 L492.8389 341.8896 L487.0187 341.5356 L484.5921 336.2335 Z" clip-path="url(#clipPath2)" stroke="none"/>
      <path fill="none" d="M529.2378 289.3026 L545.1306 309.125" clip-path="url(#clipPath2)"/>
      <path d="M550.1349 315.3666 L546.5295 302.8765 L544.5051 308.3448 L538.7275 309.1319 Z" clip-path="url(#clipPath2)" stroke="none"/>
      <path fill="none" d="M550.461 324.3449 L538.5544 342.1942" clip-path="url(#clipPath2)"/>
      <path d="M534.115 348.8493 L544.9337 341.6412 L539.1094 341.3623 L536.6147 336.0919 Z" clip-path="url(#clipPath2)" stroke="none"/>
      <path fill="none" d="M556.6339 324.3449 L568.1911 342.0635" clip-path="url(#clipPath2)"/>
      <path d="M572.5616 348.7642 L570.1937 335.9816 L567.6448 341.226 L561.8179 341.4448 Z" clip-path="url(#clipPath2)" stroke="none"/>
    </g>
  </g>
</svg>
