<?xml version="1.0" encoding="UTF-8"?><svg xmlns="http://www.w3.org/2000/svg" xmlns:xlink="http://www.w3.org/1999/xlink" fill-opacity="1" color-rendering="auto" color-interpolation="auto" text-rendering="auto" stroke="black" stroke-linecap="square" width="179" stroke-miterlimit="10" shape-rendering="auto" stroke-opacity="1" fill="black" stroke-dasharray="none" font-weight="normal" stroke-width="1" height="254" font-family="'Dialog'" font-style="normal" stroke-linejoin="miter" font-size="12px" stroke-dashoffset="0" image-rendering="auto">
  <!--Generated by ySVG 2.5-->
  <defs id="genericDefs"/>
  <g>
    <defs id="defs1">
      <clipPath clipPathUnits="userSpaceOnUse" id="clipPath1">
        <path d="M0 0 L179 0 L179 254 L0 254 L0 0 Z"/>
      </clipPath>
      <clipPath clipPathUnits="userSpaceOnUse" id="clipPath2">
        <path d="M436 144 L615 144 L615 398 L436 398 L436 144 Z"/>
      </clipPath>
    </defs>
    <g fill="white" text-rendering="geometricPrecision" shape-rendering="geometricPrecision" transform="translate(-436,-144)" stroke="white">
      <rect x="436" width="179" height="254" y="144" clip-path="url(#clipPath2)" stroke="none"/>
    </g>
    <g text-rendering="geometricPrecision" shape-rendering="geometricPrecision" transform="matrix(1,0,0,1,-436,-144)">
      <circle r="6.6114" clip-path="url(#clipPath2)" cx="533" cy="168.3886" stroke="none"/>
      <circle stroke-linecap="butt" clip-path="url(#clipPath2)" fill="none" r="6.6114" cx="533" cy="168.3886" stroke-miterlimit="1.45"/>
      <circle stroke-linecap="butt" clip-path="url(#clipPath2)" fill="none" r="9.0231" cx="533" cy="168.3886" stroke-miterlimit="1.45"/>
      <circle fill="rgb(153,204,255)" r="15" clip-path="url(#clipPath2)" cx="582.1242" cy="296.0348" stroke="none"/>
      <text stroke-linecap="butt" x="577.7911" y="300.7487" clip-path="url(#clipPath2)" font-family="sans-serif" stroke="none" stroke-miterlimit="1.45" xml:space="preserve">C</text>
      <circle stroke-linecap="butt" clip-path="url(#clipPath2)" fill="none" r="15" cx="582.1242" cy="296.0348" stroke-miterlimit="1.45"/>
      <circle r="6.6114" clip-path="url(#clipPath2)" cx="524.0902" cy="376.3114" stroke="none"/>
      <circle stroke-linecap="butt" clip-path="url(#clipPath2)" fill="none" r="6.6114" cx="524.0902" cy="376.3114" stroke-miterlimit="1.45"/>
      <path fill="none" stroke-miterlimit="1.45" d="M490.0851 248.1231 L497.8762 240.3321 L505.667 248.1231 L497.8762 255.9142 Z" fill-rule="evenodd" clip-path="url(#clipPath2)" stroke-linecap="butt"/>
      <circle fill="rgb(153,204,255)" r="15" clip-path="url(#clipPath2)" cx="466.0563" cy="296.0348" stroke="none"/>
      <text stroke-linecap="butt" x="462.0544" y="300.7487" clip-path="url(#clipPath2)" font-family="sans-serif" stroke="none" stroke-miterlimit="1.45" xml:space="preserve">A</text>
      <circle stroke-linecap="butt" clip-path="url(#clipPath2)" fill="none" r="15" cx="466.0563" cy="296.0348" stroke-miterlimit="1.45"/>
      <circle fill="rgb(255,255,102)" r="15" clip-path="url(#clipPath2)" cx="524.0902" cy="296.0348" stroke="none"/>
      <text stroke-linecap="butt" x="520.0883" y="300.7487" clip-path="url(#clipPath2)" font-family="sans-serif" stroke="none" stroke-miterlimit="1.45" xml:space="preserve">B</text>
      <circle stroke-linecap="butt" clip-path="url(#clipPath2)" fill="none" r="15" cx="524.0902" cy="296.0348" stroke-miterlimit="1.45"/>
      <path fill="none" stroke-miterlimit="1.45" d="M525.209 207.4203 L533 199.6292 L540.791 207.4203 L533 215.2113 Z" fill-rule="evenodd" clip-path="url(#clipPath2)" stroke-linecap="butt"/>
      <path fill="none" stroke-miterlimit="1.45" d="M545.316 329.5238 L553.107 321.7328 L560.898 329.5238 L553.107 337.3148 Z" fill-rule="evenodd" clip-path="url(#clipPath2)" stroke-linecap="butt"/>
      <circle fill="rgb(255,255,102)" r="15" clip-path="url(#clipPath2)" cx="584.0902" cy="359.196" stroke="none"/>
      <text stroke-linecap="butt" x="579.7572" y="363.9099" clip-path="url(#clipPath2)" font-family="sans-serif" stroke="none" stroke-miterlimit="1.45" xml:space="preserve">D</text>
      <circle stroke-linecap="butt" clip-path="url(#clipPath2)" fill="none" r="15" cx="584.0902" cy="359.196" stroke-miterlimit="1.45"/>
      <path fill="none" stroke-miterlimit="1.45" d="M494.7535 252.8253 L478.7809 276.8753" clip-path="url(#clipPath2)" stroke-linecap="butt"/>
      <path stroke-miterlimit="1.45" d="M474.3549 283.5395 L485.159 276.3095 L479.3342 276.0423 L476.8288 270.777 Z" clip-path="url(#clipPath2)" stroke-linecap="butt" stroke="none"/>
      <path fill="none" stroke-miterlimit="1.45" d="M474.8443 308.1909 L515.53 364.4702" clip-path="url(#clipPath2)" stroke-linecap="butt"/>
      <path stroke-miterlimit="1.45" d="M520.2169 370.9534 L517.2386 358.2992 L514.9441 363.6597 L509.1345 364.1578 Z" clip-path="url(#clipPath2)" stroke-linecap="butt" stroke="none"/>
      <path fill="none" stroke-miterlimit="1.45" d="M500.6284 253.1529 L513.0507 275.8574" clip-path="url(#clipPath2)" stroke-linecap="butt"/>
      <path stroke-miterlimit="1.45" d="M516.8905 282.8756 L515.5172 269.9484 L512.5707 274.9801 L506.7443 274.7482 Z" clip-path="url(#clipPath2)" stroke-linecap="butt" stroke="none"/>
      <path fill="none" stroke-miterlimit="1.45" d="M524.0902 311.0348 L524.0902 361.7" clip-path="url(#clipPath2)" stroke-linecap="butt"/>
      <path stroke-miterlimit="1.45" d="M524.0902 369.7 L529.0902 357.7 L524.0902 360.7 L519.0902 357.7 Z" clip-path="url(#clipPath2)" stroke-linecap="butt" stroke="none"/>
      <path fill="none" stroke-miterlimit="1.45" d="M533 177.4117 L533 191.6544" clip-path="url(#clipPath2)" stroke-linecap="butt"/>
      <path stroke-miterlimit="1.45" d="M533 199.6544 L538 187.6544 L533 190.6544 L528 187.6544 Z" clip-path="url(#clipPath2)" stroke-linecap="butt" stroke="none"/>
      <path fill="none" stroke-miterlimit="1.45" d="M529.3813 211.6138 L506.7026 237.8949" clip-path="url(#clipPath2)" stroke-linecap="butt"/>
      <path stroke-miterlimit="1.45" d="M501.4762 243.9516 L513.1013 238.1331 L507.356 237.1378 L505.5304 231.6 Z" clip-path="url(#clipPath2)" stroke-linecap="butt" stroke="none"/>
      <path fill="none" stroke-miterlimit="1.45" d="M535.7584 212.3962 L570.9728 275.9189" clip-path="url(#clipPath2)" stroke-linecap="butt"/>
      <path stroke-miterlimit="1.45" d="M574.8515 282.9158 L573.4064 269.9963 L570.4879 275.0443 L564.6604 274.8447 Z" clip-path="url(#clipPath2)" stroke-linecap="butt" stroke="none"/>
      <path fill="none" stroke-miterlimit="1.45" d="M572.3015 307.3712 L561.9636 319.3024" clip-path="url(#clipPath2)" stroke-linecap="butt"/>
      <path stroke-miterlimit="1.45" d="M556.7249 325.3485 L568.3618 319.5536 L562.6185 318.5466 L560.8042 313.0051 Z" clip-path="url(#clipPath2)" stroke-linecap="butt" stroke="none"/>
      <path fill="none" stroke-miterlimit="1.45" d="M550.1177 334.3441 L531.7912 363.8941" clip-path="url(#clipPath2)" stroke-linecap="butt"/>
      <path stroke-miterlimit="1.45" d="M527.5748 370.6928 L538.1486 363.1301 L532.3182 363.0443 L529.6503 357.8595 Z" clip-path="url(#clipPath2)" stroke-linecap="butt" stroke="none"/>
      <path fill="none" stroke-miterlimit="1.45" d="M557.0709 333.3197 L567.4792 343.2877" clip-path="url(#clipPath2)" stroke-linecap="butt"/>
      <path stroke-miterlimit="1.45" d="M573.257 348.8211 L568.0487 336.91 L566.757 342.5961 L561.132 344.1321 Z" clip-path="url(#clipPath2)" stroke-linecap="butt" stroke="none"/>
      <path fill="none" stroke-miterlimit="1.45" d="M569.6656 363.3107 L538.1412 372.3033" clip-path="url(#clipPath2)" stroke-linecap="butt"/>
      <path stroke-miterlimit="1.45" d="M530.4481 374.4978 L543.3593 376.0142 L539.1028 372.029 L540.6161 366.3978 Z" clip-path="url(#clipPath2)" stroke-linecap="butt" stroke="none"/>
    </g>
  </g>
</svg>
