<?xml version="1.0" encoding="UTF-8"?><svg xmlns="http://www.w3.org/2000/svg" xmlns:xlink="http://www.w3.org/1999/xlink" fill-opacity="1" color-rendering="auto" color-interpolation="auto" text-rendering="auto" stroke="black" stroke-linecap="square" width="235" stroke-miterlimit="10" shape-rendering="auto" stroke-opacity="1" fill="black" stroke-dasharray="none" font-weight="normal" stroke-width="1" height="277" font-family="'Dialog'" font-style="normal" stroke-linejoin="miter" font-size="12px" stroke-dashoffset="0" image-rendering="auto">
  <!--Generated by ySVG 2.5-->
  <defs id="genericDefs"/>
  <g>
    <defs id="defs1">
      <clipPath clipPathUnits="userSpaceOnUse" id="clipPath1">
        <path d="M0 0 L235 0 L235 277 L0 277 L0 0 Z"/>
      </clipPath>
      <clipPath clipPathUnits="userSpaceOnUse" id="clipPath2">
        <path d="M436 144 L671 144 L671 421 L436 421 L436 144 Z"/>
      </clipPath>
    </defs>
    <g fill="white" text-rendering="geometricPrecision" shape-rendering="geometricPrecision" transform="translate(-436,-144)" stroke="white">
      <rect x="436" width="235" height="277" y="144" clip-path="url(#clipPath2)" stroke="none"/>
    </g>
    <g text-rendering="geometricPrecision" shape-rendering="geometricPrecision" transform="matrix(1,0,0,1,-436,-144)">
      <circle r="6.6114" clip-path="url(#clipPath2)" cx="551.3958" cy="168.3886" stroke="none"/>
      <circle stroke-linecap="butt" clip-path="url(#clipPath2)" fill="none" r="6.6114" cx="551.3958" cy="168.3886" stroke-miterlimit="1.45"/>
      <circle stroke-linecap="butt" clip-path="url(#clipPath2)" fill="none" r="9.0231" cx="551.3958" cy="168.3886" stroke-miterlimit="1.45"/>
      <circle fill="rgb(153,204,255)" r="15" clip-path="url(#clipPath2)" cx="640.1581" cy="298.1656" stroke="none"/>
      <text stroke-linecap="butt" x="635.8251" y="302.8795" clip-path="url(#clipPath2)" font-family="sans-serif" stroke="none" stroke-miterlimit="1.45" xml:space="preserve">C</text>
      <circle stroke-linecap="butt" clip-path="url(#clipPath2)" fill="none" r="15" cx="640.1581" cy="298.1656" stroke-miterlimit="1.45"/>
      <circle r="6.6114" clip-path="url(#clipPath2)" cx="554.0902" cy="398.4298" stroke="none"/>
      <circle stroke-linecap="butt" clip-path="url(#clipPath2)" fill="none" r="6.6114" cx="554.0902" cy="398.4298" stroke-miterlimit="1.45"/>
      <path fill="none" stroke-miterlimit="1.45" d="M490.0851 248.1231 L497.8761 240.3321 L505.667 248.1231 L497.8761 255.9142 Z" fill-rule="evenodd" clip-path="url(#clipPath2)" stroke-linecap="butt"/>
      <circle fill="rgb(153,204,255)" r="15" clip-path="url(#clipPath2)" cx="466.0563" cy="296.0348" stroke="none"/>
      <text stroke-linecap="butt" x="462.0544" y="300.7487" clip-path="url(#clipPath2)" font-family="sans-serif" stroke="none" stroke-miterlimit="1.45" xml:space="preserve">A</text>
      <circle stroke-linecap="butt" clip-path="url(#clipPath2)" fill="none" r="15" cx="466.0563" cy="296.0348" stroke-miterlimit="1.45"/>
      <circle fill="rgb(255,255,102)" r="15" clip-path="url(#clipPath2)" cx="524.0902" cy="296.0348" stroke="none"/>
      <text stroke-linecap="butt" x="520.0883" y="300.7487" clip-path="url(#clipPath2)" font-family="sans-serif" stroke="none" stroke-miterlimit="1.45" xml:space="preserve">B</text>
      <circle stroke-linecap="butt" clip-path="url(#clipPath2)" fill="none" r="15" cx="524.0902" cy="296.0348" stroke-miterlimit="1.45"/>
      <path fill="none" stroke-miterlimit="1.45" d="M543.6048 207.4203 L551.3958 199.6292 L559.1868 207.4203 L551.3958 215.2113 Z" fill-rule="evenodd" clip-path="url(#clipPath2)" stroke-linecap="butt"/>
      <circle fill="rgb(255,255,102)" r="15" clip-path="url(#clipPath2)" cx="582.1242" cy="298.1656" stroke="none"/>
      <text stroke-linecap="butt" x="577.7911" y="302.8795" clip-path="url(#clipPath2)" font-family="sans-serif" stroke="none" stroke-miterlimit="1.45" xml:space="preserve">D</text>
      <circle stroke-linecap="butt" clip-path="url(#clipPath2)" fill="none" r="15" cx="582.1242" cy="298.1656" stroke-miterlimit="1.45"/>
      <path fill="none" stroke-miterlimit="1.45" d="M603.3505 248.123 L611.1415 240.332 L618.9325 248.123 L611.1415 255.914 Z" fill-rule="evenodd" clip-path="url(#clipPath2)" stroke-linecap="butt"/>
      <circle fill="rgb(153,204,255)" r="15" clip-path="url(#clipPath2)" cx="554.0902" cy="346.8184" stroke="none"/>
      <text stroke-linecap="butt" x="550.0883" y="351.5322" clip-path="url(#clipPath2)" font-family="sans-serif" stroke="none" stroke-miterlimit="1.45" xml:space="preserve">E</text>
      <circle stroke-linecap="butt" clip-path="url(#clipPath2)" fill="none" r="15" cx="554.0902" cy="346.8184" stroke-miterlimit="1.45"/>
      <path fill="none" stroke-miterlimit="1.45" d="M630.3879 309.5473 L563.6073 387.3429" clip-path="url(#clipPath2)" stroke-linecap="butt"/>
      <path stroke-miterlimit="1.45" d="M558.3965 393.4132 L570.0066 387.5645 L564.2587 386.5842 L562.4188 381.0511 Z" clip-path="url(#clipPath2)" stroke-linecap="butt" stroke="none"/>
      <path fill="none" stroke-miterlimit="1.45" d="M494.7535 252.8253 L478.7809 276.8753" clip-path="url(#clipPath2)" stroke-linecap="butt"/>
      <path stroke-miterlimit="1.45" d="M474.3549 283.5395 L485.159 276.3095 L479.3342 276.0423 L476.8288 270.777 Z" clip-path="url(#clipPath2)" stroke-linecap="butt" stroke="none"/>
      <path fill="none" stroke-miterlimit="1.45" d="M475.8353 307.409 L544.5646 387.3503" clip-path="url(#clipPath2)" stroke-linecap="butt"/>
      <path stroke-miterlimit="1.45" d="M549.7801 393.4165 L545.7483 381.0575 L543.9127 386.592 L538.1655 387.5768 Z" clip-path="url(#clipPath2)" stroke-linecap="butt" stroke="none"/>
      <path fill="none" stroke-miterlimit="1.45" d="M500.6284 253.1529 L513.0507 275.8574" clip-path="url(#clipPath2)" stroke-linecap="butt"/>
      <path stroke-miterlimit="1.45" d="M516.8905 282.8756 L515.5172 269.9484 L512.5707 274.9801 L506.7443 274.7482 Z" clip-path="url(#clipPath2)" stroke-linecap="butt" stroke="none"/>
      <path fill="none" stroke-miterlimit="1.45" d="M551.3958 177.4117 L551.3958 191.6544" clip-path="url(#clipPath2)" stroke-linecap="butt"/>
      <path stroke-miterlimit="1.45" d="M551.3958 199.6544 L556.3958 187.6544 L551.3958 190.6544 L546.3958 187.6544 Z" clip-path="url(#clipPath2)" stroke-linecap="butt" stroke="none"/>
      <path fill="none" stroke-miterlimit="1.45" d="M546.9794 210.7791 L508.6797 239.9069" clip-path="url(#clipPath2)" stroke-linecap="butt"/>
      <path stroke-miterlimit="1.45" d="M502.312 244.7497 L514.8903 241.4653 L509.4757 239.3016 L508.8369 233.5057 Z" clip-path="url(#clipPath2)" stroke-linecap="butt" stroke="none"/>
      <path fill="none" stroke-miterlimit="1.45" d="M556.0342 210.5803 L599.8746 240.4475" clip-path="url(#clipPath2)" stroke-linecap="butt"/>
      <path stroke-miterlimit="1.45" d="M606.4861 244.9517 L599.384 234.0632 L599.0482 239.8845 L593.7537 242.3276 Z" clip-path="url(#clipPath2)" stroke-linecap="butt" stroke="none"/>
      <path fill="none" stroke-miterlimit="1.45" d="M613.989 253.0345 L628.6208 278.2686" clip-path="url(#clipPath2)" stroke-linecap="butt"/>
      <path stroke-miterlimit="1.45" d="M632.6338 285.1893 L630.9398 272.3001 L628.1192 277.4035 L622.2889 277.3163 Z" clip-path="url(#clipPath2)" stroke-linecap="butt" stroke="none"/>
      <path fill="none" stroke-miterlimit="1.45" d="M608.2933 253.0345 L593.6614 278.2686" clip-path="url(#clipPath2)" stroke-linecap="butt"/>
      <path stroke-miterlimit="1.45" d="M589.6484 285.1893 L599.9933 277.3163 L594.163 277.4035 L591.3424 272.3001 Z" clip-path="url(#clipPath2)" stroke-linecap="butt" stroke="none"/>
      <path fill="none" stroke-miterlimit="1.45" d="M531.7196 308.9496 L542.3919 327.0156" clip-path="url(#clipPath2)" stroke-linecap="butt"/>
      <path stroke-miterlimit="1.45" d="M546.4609 333.9035 L544.6624 321.0285 L541.8833 326.1546 L536.0525 326.1148 Z" clip-path="url(#clipPath2)" stroke-linecap="butt" stroke="none"/>
      <path fill="none" stroke-miterlimit="1.45" d="M574.6353 311.1624 L565.5731 326.8899" clip-path="url(#clipPath2)" stroke-linecap="butt"/>
      <path stroke-miterlimit="1.45" d="M561.579 333.8215 L571.9024 325.9203 L566.0724 326.0234 L563.2379 320.9278 Z" clip-path="url(#clipPath2)" stroke-linecap="butt" stroke="none"/>
      <path fill="none" stroke-miterlimit="1.45" d="M554.0902 361.8184 L554.0902 383.8184" clip-path="url(#clipPath2)" stroke-linecap="butt"/>
      <path stroke-miterlimit="1.45" d="M554.0902 391.8184 L559.0902 379.8184 L554.0902 382.8184 L549.0902 379.8184 Z" clip-path="url(#clipPath2)" stroke-linecap="butt" stroke="none"/>
    </g>
  </g>
</svg>
