<?xml version="1.0" encoding="UTF-8"?><svg xmlns="http://www.w3.org/2000/svg" xmlns:xlink="http://www.w3.org/1999/xlink" fill-opacity="1" color-rendering="auto" color-interpolation="auto" text-rendering="auto" stroke="black" stroke-linecap="square" width="145" stroke-miterlimit="10" shape-rendering="auto" stroke-opacity="1" fill="black" stroke-dasharray="none" font-weight="normal" stroke-width="1" height="185" font-family="'Dialog'" font-style="normal" stroke-linejoin="miter" font-size="12px" stroke-dashoffset="0" image-rendering="auto">
  <!--Generated by ySVG 2.5-->
  <defs id="genericDefs"/>
  <g>
    <defs id="defs1">
      <clipPath clipPathUnits="userSpaceOnUse" id="clipPath1">
        <path d="M0 0 L145 0 L145 185 L0 185 L0 0 Z"/>
      </clipPath>
      <clipPath clipPathUnits="userSpaceOnUse" id="clipPath2">
        <path d="M413 184 L558 184 L558 369 L413 369 L413 184 Z"/>
      </clipPath>
    </defs>
    <g fill="white" text-rendering="geometricPrecision" shape-rendering="geometricPrecision" transform="translate(-413,-184)" stroke="white">
      <rect x="413" width="145" height="185" y="184" clip-path="url(#clipPath2)" stroke="none"/>
    </g>
    <g text-rendering="geometricPrecision" shape-rendering="geometricPrecision" transform="matrix(1,0,0,1,-413,-184)">
      <circle r="6.6114" clip-path="url(#clipPath2)" cx="492.6677" cy="208.6932" stroke="none"/>
      <circle stroke-linecap="butt" clip-path="url(#clipPath2)" fill="none" r="6.6114" cx="492.6677" cy="208.6932" stroke-miterlimit="1.45"/>
      <circle stroke-linecap="butt" clip-path="url(#clipPath2)" fill="none" r="9.0231" cx="492.6677" cy="208.6932" stroke-miterlimit="1.45"/>
      <path fill="none" stroke-miterlimit="1.45" d="M484.8763 250.7805 L492.6673 242.9894 L500.4582 250.7805 L492.6673 258.5716 Z" fill-rule="evenodd" clip-path="url(#clipPath2)" stroke-linecap="butt"/>
      <circle fill="rgb(153,204,255)" r="15" clip-path="url(#clipPath2)" cx="443.3153" cy="250.7804" stroke="none"/>
      <text stroke-linecap="butt" x="439.3134" y="255.4943" clip-path="url(#clipPath2)" font-family="sans-serif" stroke="none" stroke-miterlimit="1.45" xml:space="preserve">A</text>
      <circle stroke-linecap="butt" clip-path="url(#clipPath2)" fill="none" r="15" cx="443.3153" cy="250.7804" stroke-miterlimit="1.45"/>
      <circle fill="rgb(255,255,102)" r="15" clip-path="url(#clipPath2)" cx="488.8704" cy="329.2392" stroke="none"/>
      <text stroke-linecap="butt" x="484.8684" y="333.9531" clip-path="url(#clipPath2)" font-family="sans-serif" stroke="none" stroke-miterlimit="1.45" xml:space="preserve">B</text>
      <circle stroke-linecap="butt" clip-path="url(#clipPath2)" fill="none" r="15" cx="488.8704" cy="329.2392" stroke-miterlimit="1.45"/>
      <circle r="6.6114" clip-path="url(#clipPath2)" cx="527.6677" cy="347.0495" stroke="none"/>
      <circle stroke-linecap="butt" clip-path="url(#clipPath2)" fill="none" r="6.6114" cx="527.6677" cy="347.0495" stroke-miterlimit="1.45"/>
      <path fill="none" stroke-miterlimit="1.45" d="M457.0854 291.6355 L464.8765 283.8444 L472.6674 291.6355 L464.8765 299.4265 Z" fill-rule="evenodd" clip-path="url(#clipPath2)" stroke-linecap="butt"/>
      <circle fill="rgb(153,204,255)" r="15" clip-path="url(#clipPath2)" cx="527.6677" cy="286.4053" stroke="none"/>
      <text stroke-linecap="butt" x="523.3347" y="291.1192" clip-path="url(#clipPath2)" font-family="sans-serif" stroke="none" stroke-miterlimit="1.45" xml:space="preserve">C</text>
      <circle stroke-linecap="butt" clip-path="url(#clipPath2)" fill="none" r="15" cx="527.6677" cy="286.4053" stroke-miterlimit="1.45"/>
      <path fill="none" stroke-miterlimit="1.45" d="M492.6677 217.7164 L492.6677 234.9987" clip-path="url(#clipPath2)" stroke-linecap="butt"/>
      <path stroke-miterlimit="1.45" d="M492.6677 242.9987 L497.6677 230.9987 L492.6677 233.9987 L487.6677 230.9987 Z" clip-path="url(#clipPath2)" stroke-linecap="butt" stroke="none"/>
      <path fill="none" stroke-miterlimit="1.45" d="M484.9082 250.7804 L466.3153 250.7804" clip-path="url(#clipPath2)" stroke-linecap="butt"/>
      <path stroke-miterlimit="1.45" d="M458.3153 250.7804 L470.3153 255.7804 L467.3153 250.7804 L470.3153 245.7804 Z" clip-path="url(#clipPath2)" stroke-linecap="butt" stroke="none"/>
      <path fill="none" stroke-miterlimit="1.45" d="M502.5026 335.4973 L514.3887 340.9536" clip-path="url(#clipPath2)" stroke-linecap="butt"/>
      <path stroke-miterlimit="1.45" d="M521.6592 344.2913 L512.8394 334.7408 L513.4799 340.5364 L508.6674 343.8289 Z" clip-path="url(#clipPath2)" stroke-linecap="butt" stroke="none"/>
      <path fill="none" stroke-miterlimit="1.45" d="M450.3164 264.0463 L458.4554 279.4682" clip-path="url(#clipPath2)" stroke-linecap="butt"/>
      <path stroke-miterlimit="1.45" d="M462.1893 286.5433 L461.0103 273.5969 L457.9886 278.5838 L452.1664 278.2643 Z" clip-path="url(#clipPath2)" stroke-linecap="butt" stroke="none"/>
      <path fill="none" stroke-miterlimit="1.45" d="M468.052 286.9674 L485.0191 262.0245" clip-path="url(#clipPath2)" stroke-linecap="butt"/>
      <path stroke-miterlimit="1.45" d="M489.5186 255.4098 L478.6352 262.5196 L484.4567 262.8513 L486.9035 268.144 Z" clip-path="url(#clipPath2)" stroke-linecap="butt" stroke="none"/>
      <path fill="none" stroke-miterlimit="1.45" d="M467.8993 296.3727 L476.4988 309.85" clip-path="url(#clipPath2)" stroke-linecap="butt"/>
      <path stroke-miterlimit="1.45" d="M480.8019 316.5941 L478.5623 303.7885 L475.9609 309.007 L470.1321 309.1674 Z" clip-path="url(#clipPath2)" stroke-linecap="butt" stroke="none"/>
      <path fill="none" stroke-miterlimit="1.45" d="M496.53 254.7117 L511.5488 269.9986" clip-path="url(#clipPath2)" stroke-linecap="butt"/>
      <path stroke-miterlimit="1.45" d="M517.1554 275.7053 L512.3122 263.6411 L510.848 269.2853 L505.1788 270.6494 Z" clip-path="url(#clipPath2)" stroke-linecap="butt" stroke="none"/>
      <path fill="none" stroke-miterlimit="1.45" d="M527.6677 301.4053 L527.6677 332.4381" clip-path="url(#clipPath2)" stroke-linecap="butt"/>
      <path stroke-miterlimit="1.45" d="M527.6677 340.4381 L532.6677 328.4381 L527.6677 331.4381 L522.6677 328.4381 Z" clip-path="url(#clipPath2)" stroke-linecap="butt" stroke="none"/>
    </g>
  </g>
</svg>
