<?xml version="1.0" encoding="UTF-8"?><svg xmlns="http://www.w3.org/2000/svg" xmlns:xlink="http://www.w3.org/1999/xlink" fill-opacity="1" color-rendering="auto" color-interpolation="auto" text-rendering="auto" stroke="black" stroke-linecap="square" width="173" stroke-miterlimit="10" shape-rendering="auto" stroke-opacity="1" fill="black" stroke-dasharray="none" font-weight="normal" stroke-width="1" height="303" font-family="'Dialog'" font-style="normal" stroke-linejoin="miter" font-size="12px" stroke-dashoffset="0" image-rendering="auto">
  <!--Generated by ySVG 2.5-->
  <defs id="genericDefs"/>
  <g>
    <defs id="defs1">
      <clipPath clipPathUnits="userSpaceOnUse" id="clipPath1">
        <path d="M0 0 L173 0 L173 303 L0 303 L0 0 Z"/>
      </clipPath>
      <clipPath clipPathUnits="userSpaceOnUse" id="clipPath2">
        <path d="M413 108 L586 108 L586 411 L413 411 L413 108 Z"/>
      </clipPath>
    </defs>
    <g fill="white" text-rendering="geometricPrecision" shape-rendering="geometricPrecision" transform="translate(-413,-108)" stroke="white">
      <rect x="413" width="173" height="303" y="108" clip-path="url(#clipPath2)" stroke="none"/>
    </g>
    <g text-rendering="geometricPrecision" shape-rendering="geometricPrecision" transform="matrix(1,0,0,1,-413,-108)">
      <circle r="6.6114" clip-path="url(#clipPath2)" cx="492.6677" cy="132.2978" stroke="none"/>
      <circle stroke-linecap="butt" clip-path="url(#clipPath2)" fill="none" r="6.6114" cx="492.6677" cy="132.2978" stroke-miterlimit="1.45"/>
      <circle stroke-linecap="butt" clip-path="url(#clipPath2)" fill="none" r="9.0231" cx="492.6677" cy="132.2978" stroke-miterlimit="1.45"/>
      <circle fill="rgb(153,204,255)" r="15" clip-path="url(#clipPath2)" cx="492.6677" cy="183.9092" stroke="none"/>
      <text stroke-linecap="butt" x="488.6658" y="188.623" clip-path="url(#clipPath2)" font-family="sans-serif" stroke="none" stroke-miterlimit="1.45" xml:space="preserve">A</text>
      <circle stroke-linecap="butt" clip-path="url(#clipPath2)" fill="none" r="15" cx="492.6677" cy="183.9092" stroke-miterlimit="1.45"/>
      <circle fill="rgb(255,255,102)" r="15" clip-path="url(#clipPath2)" cx="443.2653" cy="290.3046" stroke="none"/>
      <text stroke-linecap="butt" x="439.2633" y="295.0185" clip-path="url(#clipPath2)" font-family="sans-serif" stroke="none" stroke-miterlimit="1.45" xml:space="preserve">B</text>
      <circle stroke-linecap="butt" clip-path="url(#clipPath2)" fill="none" r="15" cx="443.2653" cy="290.3046" stroke-miterlimit="1.45"/>
      <circle r="6.6114" clip-path="url(#clipPath2)" cx="492.6677" cy="388.4191" stroke="none"/>
      <circle stroke-linecap="butt" clip-path="url(#clipPath2)" fill="none" r="6.6114" cx="492.6677" cy="388.4191" stroke-miterlimit="1.45"/>
      <circle fill="rgb(153,204,255)" r="15" clip-path="url(#clipPath2)" cx="487.9491" cy="290.3046" stroke="none"/>
      <text stroke-linecap="butt" x="483.6161" y="295.0185" clip-path="url(#clipPath2)" font-family="sans-serif" stroke="none" stroke-miterlimit="1.45" xml:space="preserve">C</text>
      <circle stroke-linecap="butt" clip-path="url(#clipPath2)" fill="none" r="15" cx="487.9491" cy="290.3046" stroke-miterlimit="1.45"/>
      <circle fill="rgb(255,255,102)" r="15" clip-path="url(#clipPath2)" cx="555.4858" cy="332.5754" stroke="none"/>
      <text stroke-linecap="butt" x="551.1528" y="337.2892" clip-path="url(#clipPath2)" font-family="sans-serif" stroke="none" stroke-miterlimit="1.45" xml:space="preserve">D</text>
      <circle stroke-linecap="butt" clip-path="url(#clipPath2)" fill="none" r="15" cx="555.4858" cy="332.5754" stroke-miterlimit="1.45"/>
      <path fill="none" stroke-miterlimit="1.45" d="M484.8767 223.3128 L492.6677 215.5217 L500.4587 223.3128 L492.6677 231.1038 Z" fill-rule="evenodd" clip-path="url(#clipPath2)" stroke-linecap="butt"/>
      <path fill="none" stroke-miterlimit="1.45" d="M515.9445 255.5074 L523.7355 247.7164 L531.5266 255.5074 L523.7355 263.2984 Z" fill-rule="evenodd" clip-path="url(#clipPath2)" stroke-linecap="butt"/>
      <circle fill="rgb(153,204,255)" r="15" clip-path="url(#clipPath2)" cx="492.6677" cy="350.3046" stroke="none"/>
      <text stroke-linecap="butt" x="488.6658" y="355.0185" clip-path="url(#clipPath2)" font-family="sans-serif" stroke="none" stroke-miterlimit="1.45" xml:space="preserve">E</text>
      <circle stroke-linecap="butt" clip-path="url(#clipPath2)" fill="none" r="15" cx="492.6677" cy="350.3046" stroke-miterlimit="1.45"/>
      <path fill="none" stroke-miterlimit="1.45" d="M537.3015 287.122 L545.0925 279.331 L552.8836 287.122 L545.0925 294.9131 Z" fill-rule="evenodd" clip-path="url(#clipPath2)" stroke-linecap="butt"/>
      <path fill="none" stroke-miterlimit="1.45" d="M492.6677 141.3209 L492.6677 160.9092" clip-path="url(#clipPath2)" stroke-linecap="butt"/>
      <path stroke-miterlimit="1.45" d="M492.6677 168.9092 L497.6677 156.9092 L492.6677 159.9092 L487.6677 156.9092 Z" clip-path="url(#clipPath2)" stroke-linecap="butt" stroke="none"/>
      <path fill="none" stroke-miterlimit="1.45" d="M492.6677 198.9092 L492.6677 207.5437" clip-path="url(#clipPath2)" stroke-linecap="butt"/>
      <path stroke-miterlimit="1.45" d="M492.6677 215.5437 L497.6677 203.5437 L492.6677 206.5437 L487.6677 203.5437 Z" clip-path="url(#clipPath2)" stroke-linecap="butt" stroke="none"/>
      <path fill="none" stroke-miterlimit="1.45" d="M489.3629 227.7942 L456.916 271.7936" clip-path="url(#clipPath2)" stroke-linecap="butt"/>
      <path stroke-miterlimit="1.45" d="M452.1679 278.2322 L463.3142 271.5419 L457.5095 270.9888 L455.2659 265.6068 Z" clip-path="url(#clipPath2)" stroke-linecap="butt" stroke="none"/>
      <path fill="none" stroke-miterlimit="1.45" d="M496.5208 227.3057 L514.3798 245.8124" clip-path="url(#clipPath2)" stroke-linecap="butt"/>
      <path stroke-miterlimit="1.45" d="M519.9351 251.5691 L515.2001 239.462 L513.6854 245.0928 L508.0043 246.4061 Z" clip-path="url(#clipPath2)" stroke-linecap="butt" stroke="none"/>
      <path fill="none" stroke-miterlimit="1.45" d="M519.7864 259.3473 L504.4389 274.2707" clip-path="url(#clipPath2)" stroke-linecap="butt"/>
      <path stroke-miterlimit="1.45" d="M498.7033 279.8477 L510.7923 275.0669 L505.1558 273.5735 L503.821 267.8974 Z" clip-path="url(#clipPath2)" stroke-linecap="butt" stroke="none"/>
      <path fill="none" stroke-miterlimit="1.45" d="M452.7998 301.8845 L478.0481 332.5489" clip-path="url(#clipPath2)" stroke-linecap="butt"/>
      <path stroke-miterlimit="1.45" d="M483.1332 338.7248 L479.3655 326.2827 L477.4124 331.7769 L471.6456 332.6391 Z" clip-path="url(#clipPath2)" stroke-linecap="butt" stroke="none"/>
      <path fill="none" stroke-miterlimit="1.45" d="M489.1251 305.2585 L490.8645 327.3754" clip-path="url(#clipPath2)" stroke-linecap="butt"/>
      <path stroke-miterlimit="1.45" d="M491.4917 335.3508 L495.5355 322.9957 L490.7861 326.3785 L485.5663 323.7798 Z" clip-path="url(#clipPath2)" stroke-linecap="butt" stroke="none"/>
      <path fill="none" stroke-miterlimit="1.45" d="M541.0497 336.6497 L514.803 344.0573" clip-path="url(#clipPath2)" stroke-linecap="butt"/>
      <path stroke-miterlimit="1.45" d="M507.1038 346.2303 L520.0107 347.7829 L515.7654 343.7857 L517.2945 338.1588 Z" clip-path="url(#clipPath2)" stroke-linecap="butt" stroke="none"/>
      <path fill="none" stroke-miterlimit="1.45" d="M492.6677 365.3046 L492.6677 373.8077" clip-path="url(#clipPath2)" stroke-linecap="butt"/>
      <path stroke-miterlimit="1.45" d="M492.6677 381.8077 L497.6677 369.8077 L492.6677 372.8077 L487.6677 369.8077 Z" clip-path="url(#clipPath2)" stroke-linecap="butt" stroke="none"/>
      <path fill="none" stroke-miterlimit="1.45" d="M526.8849 260.1693 L537.467 275.8341" clip-path="url(#clipPath2)" stroke-linecap="butt"/>
      <path stroke-miterlimit="1.45" d="M541.9453 282.4632 L539.3711 269.7206 L536.9073 275.0054 L531.0847 275.3185 Z" clip-path="url(#clipPath2)" stroke-linecap="butt" stroke="none"/>
      <path fill="none" stroke-miterlimit="1.45" d="M541.5344 291.4103 L507.3543 332.6043" clip-path="url(#clipPath2)" stroke-linecap="butt"/>
      <path stroke-miterlimit="1.45" d="M502.2459 338.7609 L513.7565 332.7187 L507.9929 331.8347 L506.0606 326.3332 Z" clip-path="url(#clipPath2)" stroke-linecap="butt" stroke="none"/>
      <path fill="none" stroke-miterlimit="1.45" d="M546.5439 293.4695 L550.3589 310.154" clip-path="url(#clipPath2)" stroke-linecap="butt"/>
      <path stroke-miterlimit="1.45" d="M552.1422 317.9527 L554.3415 305.1401 L550.136 309.1792 L544.5931 307.3692 Z" clip-path="url(#clipPath2)" stroke-linecap="butt" stroke="none"/>
    </g>
  </g>
</svg>
